
@startuml
'Automatically generated by spec-parser v3.0.1 on 2026-09-21T13:50:44.195244+00:00

title SPDXv3 model
scale 4000*4000
hide methods
skinparam packageStyle folder

package Software {
}
package Extension {
}
package Service {
}
package Security {
}
package ExpandedLicensing {
}
package Core {
}
package Operations {
}
package FunctionalSafety {
}
package Dataset {
}
package Build {
}
package SupplyChain {
}
package Hardware {
}
package SimpleLicensing {
}
package AI {
}
package Lite {
}
package Licensing {
}
class Software.ContentIdentifier {
	contentIdentifierType 1:1
	contentIdentifierValue 1:1
}
abstract Software.SoftwareArtifact {
	additionalPurpose 0:*
	artifactSize 0:1
	attributionText 0:*
	contentIdentifier 0:*
	copyrightText 0:1
	downloadLocation 0:1
	primaryPurpose 0:1
}
class Software.File {
	/Core/contentType 0:1
	fileKind 0:1
}
class Software.Package {
	/Core/version 0:1
	homePage 0:1
	packageUrl 0:1
	packageVersion 0:1
	sourceInfo 0:1
}
class Software.Sbom {
	sbomType 0:*
}
class Software.Snippet {
	byteRange 0:1
	lineRange 0:1
	snippetFromFile 1:1
}
class Extension.CdxPropertiesExtension {
	cdxProperty 1:*
}
abstract Extension.Extension {
}
class Extension.CdxPropertyEntry {
	cdxPropName 1:1
	cdxPropValue 0:1
}
class Service.SoftwareService {
	serverAuthenticationProtocol 0:*
	serviceHostingCountry 0:*
}
class Security.VexFixedVulnAssessmentRelationship {
}
class Security.VexAffectedVulnAssessmentRelationship {
	actionStatement 1:1
	actionStatementTime 0:1
}
class Security.VexUnderInvestigationVulnAssessmentRelationship {
}
class Security.CvssV2VulnAssessmentRelationship {
	score 1:1
	vectorString 1:1
}
class Security.CvssV3VulnAssessmentRelationship {
	score 1:1
	severity 1:1
	vectorString 1:1
}
abstract Security.VexVulnAssessmentRelationship {
	statusNotes 0:1
	vexVersion 0:1
}
class Security.CvssV4VulnAssessmentRelationship {
	score 1:1
	severity 1:1
	vectorString 1:1
}
abstract Security.VulnAssessmentRelationship {
	/Core/suppliedBy 0:1
	assessedElement 0:1
	modifiedTime 0:1
	publishedTime 0:1
	withdrawnTime 0:1
}
class Security.Vulnerability {
	modifiedTime 0:1
	publishedTime 0:1
	withdrawnTime 0:1
}
class Security.VexNotAffectedVulnAssessmentRelationship {
	impactStatement 0:1
	impactStatementTime 0:1
	justificationType 0:1
}
class Security.ExploitCatalogVulnAssessmentRelationship {
	catalogType 1:1
	exploited 1:1
	locator 1:1
}
class Security.SsvcVulnAssessmentRelationship {
	decisionType 1:1
}
class Security.EpssVulnAssessmentRelationship {
	percentile 1:1
	probability 1:1
}
class ExpandedLicensing.DisjunctiveLicenseSet {
	member 2:*
}
class ExpandedLicensing.ListedLicense {
	deprecatedVersion 0:1
	listVersionAdded 0:1
}
abstract ExpandedLicensing.License {
	/SimpleLicensing/licenseText 1:1
	isDeprecatedLicenseId 0:1
	isFsfLibre 0:1
	isOsiApproved 0:1
	licenseXml 0:1
	obsoletedBy 0:1
	seeAlso 0:*
	standardLicenseHeader 0:1
	standardLicenseTemplate 0:1
}
class ExpandedLicensing.ListedLicenseException {
	deprecatedVersion 0:1
	listVersionAdded 0:1
}
class ExpandedLicensing.CustomLicense {
}
class ExpandedLicensing.ConjunctiveLicenseSet {
	member 2:*
}
class ExpandedLicensing.CustomLicenseAddition {
}
abstract ExpandedLicensing.ExtendableLicense {
}
abstract ExpandedLicensing.LicenseAddition {
	additionText 1:1
	isDeprecatedAdditionId 0:1
	licenseXml 0:1
	obsoletedBy 0:1
	seeAlso 0:*
	standardAdditionTemplate 0:1
}
class ExpandedLicensing.WithAdditionOperator {
	subjectAddition 1:1
	subjectExtendableLicense 1:1
}
class ExpandedLicensing.IndividualLicensingInfo {
}
class ExpandedLicensing.OrLaterOperator {
	subjectLicense 1:1
}
class Core.Relationship {
	completeness 0:1
	endTime 0:1
	from 1:1
	relationshipType 1:1
	startTime 0:1
	to 1:*
}
class Core.Bundle {
	context 0:1
}
class Core.Specification {
	specType 0:1
}
abstract Core.Artifact {
	builtTime 0:1
	intendedUse 0:1
	originatedBy 0:*
	releaseTime 0:1
	standardName 0:*
	suppliedBy 0:1
	supportLevel 0:*
	validUntilTime 0:1
}
class Core.ExternalMap {
	definingArtifact 0:1
	externalSpdxId 1:1
	locationHint 0:1
	verifiedUsing 0:*
}
class Core.UnitOfMeasure {
	quantity 1:1
	unitQUDT 1:1
}
class Core.PositiveIntegerRange {
	beginIntegerRange 1:1
	endIntegerRange 1:1
}
class Core.Requirement {
	devLifecycleStage 0:*
	rationale 0:*
	requirementStatement 1:1
	requirementStatus 0:1
	requirementUID 0:1
}
class Core.LifecycleScopedRelationship {
	scope 0:1
}
class Core.Regulation {
}
class Core.DictionaryEntry {
	key 1:1
	value 0:1
}
abstract Core.IntegrityMethod {
	comment 0:1
}
abstract Core.Element {
	comment 0:1
	creationInfo 1:1
	description 0:1
	extension 0:*
	externalIdentifier 0:*
	externalRef 0:*
	name 0:1
	spdxId 1:1
	summary 0:1
	verifiedUsing 0:*
}
class Core.Agent {
}
class Core.Person {
}
class Core.DefinedType {
	definitionSource 1:1
	typeFromSource 1:1
}
class Core.Bom {
	/Core/version 0:1
}
class Core.IndividualElement {
}
class Core.ExternalIdentifier {
	comment 0:1
	externalIdentifierType 1:1
	identifier 1:1
	identifierLocator 0:*
	issuingAuthority 0:1
}
class Core.Organization {
	headquartersLocation 0:*
}
class Core.SpdxDocument {
	dataLicense 0:1
	import 0:*
	namespaceMap 0:*
}
abstract Core.DefinedProcess {
	processReadiness 0:1
	rationale 0:1
	version 1:1
}
class Core.NamespaceMap {
	namespace 1:1
	prefix 1:1
}
class Core.SupportRelationship {
	supportLevel 1:1
}
class Core.PackageVerificationCode {
	algorithm 1:1
	hashValue 1:1
	packageVerificationCodeExcludedFile 0:*
}
class Core.Hash {
	algorithm 1:1
	hashValue 1:1
}
class Core.PhysicalLocation {
	city 0:1
	country 0:1
	countyCode 0:1
	geographicPointLocation 0:*
	postOfficeBoxNumber 0:1
	postalCode 0:1
	postalName 0:1
	provinceStateCode 0:1
	streetAddress 0:1
}
abstract Core.Action {
	actionLocation 0:*
	additionalInformation 0:*
	endTime 0:1
	startTime 0:1
}
class Core.ElementMap {
	elementValue 1:1
	key 1:1
}
class Core.Role {
	authorization 0:*
	referenceSpecification 0:*
	responsibility 0:*
	roleQualification 1:*
}
class Core.Annotation {
	annotationType 1:1
	contentType 0:1
	statement 0:1
	subject 1:1
}
class Core.CreationInfo {
	comment 0:1
	created 1:1
	createdBy 1:*
	createdUsing 0:*
	specVersion 1:1
}
class Core.RoleRelationship {
	assignedBy 0:*
	givenRole 1:*
}
class Core.ContactPointRelationship {
	contactType 1:1
}
class Core.ExternalRef {
	comment 0:1
	contentType 0:1
	externalRefType 0:1
	locator 0:*
}
class Core.Tool {
	version 0:1
}
abstract Core.Location {
	locationTime 0:1
}
abstract Core.ElementCollection {
	element 0:*
	profileConformance 0:*
	rootElement 0:*
}
class Core.SoftwareAgent {
}
class Operations.ExportControlClassification {
	/Core/comment 0:1
	exportClassification 1:1
	exportControlSpecification 1:1
	exportingCountry 1:1
	weight 0:1
}
class Operations.Project {
	/Core/endTime 0:1
	/Core/startTime 1:1
	projectContract 1:1
	projectOwner 1:1
	projectSponsor 0:*
	projectTitle 1:1
}
class Operations.ExportControlClassificationAssessment {
	assessedElement 1:1
	assessmentContext 0:1
	assessmentResult 1:*
	assessmentTime 0:1
	assessor 0:1
}
class FunctionalSafety.SafetyContextRelationship {
	safetyIntegrityLevel 0:1
}
class FunctionalSafety.Assumption {
	/Core/rationale 0:*
	assumptionStatement 1:1
	assumptionUID 0:1
}
class FunctionalSafety.RequirementVerification {
	/Core/rationale 0:1
	verificationMethod 0:*
	verificationPostcondition 0:*
	verificationPrecondition 0:*
	verificationUID 0:1
}
class FunctionalSafety.EvidenceRelationship {
	evidenceCategory 0:*
	evidenceUID 0:1
}
class FunctionalSafety.EvaluationResult {
	/Core/rationale 1:1
	evaluation 1:1
	evaluationBasedOn 1:1
}
class Dataset.DatasetPackage {
	/Core/inLanguage 0:*
	anonymizationMethodUsed 0:*
	confidentialityLevel 0:1
	dataCollectionProcess 0:1
	dataPreprocessing 0:*
	datasetAvailability 0:1
	datasetNoise 0:1
	datasetSize 0:1
	datasetType 1:*
	datasetUpdateMechanism 0:1
	hasSensitivePersonalInformation 0:1
	intendedUse 0:1
	knownBias 0:*
	sensor 0:*
}
class Build.Build {
	/Core/endTime 0:1
	/Core/startTime 0:1
	buildEndTime 0:1
	buildId 0:1
	buildStartTime 0:1
	buildType 1:1
	configSourceDigest 0:*
	configSourceEntrypoint 0:*
	configSourceUri 0:*
	environment 0:*
	parameter 0:*
}
class SupplyChain.HarvestAction {
}
class SupplyChain.StateProcess {
	validState 1:*
}
class SupplyChain.AssemblyProcess {
}
class SupplyChain.ResolutionAction {
}
class SupplyChain.ReproduceProcess {
}
class SupplyChain.BoundaryDefinitionAction {
	boundaryParameter 1:*
}
class SupplyChain.ResponsibilityChangeProcess {
	plannedCurrentResponsibleAgent 0:1
	plannedPreviousResponsibleAgent 0:1
	plannedProductOfResponsibilityChange 0:*
	responsibilityCategory 1:1
}
class SupplyChain.StorageAction {
}
class SupplyChain.TransportProcess {
	plannedDropoffLocation 0:*
	plannedPickupLocation 0:*
	plannedTransportRoute 0:*
}
class SupplyChain.ChangeProcess {
}
class SupplyChain.DestroyAction {
	destructionPerformedBy 1:*
}
abstract SupplyChain.ModifyAction {
}
class SupplyChain.TestAction {
}
class SupplyChain.OutOfSpecAction {
}
class SupplyChain.InstantiateVirtualHardwareProcess {
}
class SupplyChain.ResponsibilityChangeAction {
	currentResponsibleAgent 1:1
	previousResponsibleAgent 0:1
	responsibilityCategory 1:1
	responsibilityChangedOn 1:*
}
class SupplyChain.BoundaryCrossingAction {
}
class SupplyChain.ReproduceAction {
}
class SupplyChain.ManufactureProcess {
}
class SupplyChain.StorageProcess {
	plannedStorageLocation 0:*
}
abstract SupplyChain.CreateAction {
}
class SupplyChain.State {
}
class SupplyChain.PlanAction {
}
class SupplyChain.StateAction {
	currentState 1:1
	decisionProcess 1:1
}
class SupplyChain.HarvestProcess {
}
class SupplyChain.ManufactureAction {
}
class SupplyChain.BoundaryDefinitionProcess {
}
class SupplyChain.TransportAction {
	dropoffLocation 0:*
	pickupLocation 1:*
	transportRoute 0:*
}
class SupplyChain.PlanProcess {
}
class SupplyChain.InspectionProcess {
	plannedInspectionLocation 0:*
}
abstract SupplyChain.ModifyProcess {
}
class SupplyChain.AssemblyAction {
}
abstract SupplyChain.CreateProcess {
}
class SupplyChain.DestroyProcess {
}
abstract SupplyChain.UseAction {
}
class SupplyChain.TestProcess {
}
abstract SupplyChain.UseProcess {
}
class SupplyChain.ChangeAction {
}
class SupplyChain.InspectionAction {
}
class Hardware.BulkHardware {
	bulkQuantity 1:1
}
abstract Hardware.Hardware {
	/Core/version 0:1
	additionalInformation 0:*
	additionalInformationSpecification 0:*
	batchNumber 0:1
	category 0:*
	hazard 0:*
	partNumber 1:1
	productAgent 1:1
	releaseDate 0:1
	serialNumber 0:1
}
class Hardware.VirtualHardware {
	virtualHardwareModel 0:1
}
class Hardware.PhysicalHardware {
	centerOfMass 0:1
	dimensions 0:1
	massOfHardware 0:1
}
class Hardware.ProductSpecification {
	/Core/version 0:*
	hazard 0:*
	partNumber 1:*
}
class Hardware.Dimensions {
	xAxisLength 1:1
	yAxisLength 1:1
	zAxisLength 1:1
}
class SimpleLicensing.LicenseExpression {
	customIdToLicense 0:*
	customIdToUri 0:*
	licenseExpression 1:1
	licenseListVersion 0:1
}
class SimpleLicensing.SimpleLicensingText {
	licenseText 1:1
}
abstract SimpleLicensing.AnyLicenseInfo {
}
class AI.EnergyConsumption {
	finetuningEnergyConsumption 0:*
	inferenceEnergyConsumption 0:*
	trainingEnergyConsumption 0:*
}
class AI.AIPackage {
	/Core/isoAutomationLevel 0:1
	autonomyType 0:1
	domain 0:*
	energyConsumption 0:1
	hyperparameter 0:*
	informationAboutApplication 0:1
	informationAboutTraining 0:1
	limitation 0:1
	metric 0:*
	metricDecisionThreshold 0:*
	modelDataPreprocessing 0:*
	modelExplainability 0:*
	safetyRiskAssessment 0:1
	standardCompliance 0:*
	typeOfModel 0:*
	useSensitivePersonalInformation 0:1
}
class AI.InteractionTemplate {
	interactionTemplateDictionary 0:*
	interactionTemplateString 0:1
}
class AI.EnergyConsumptionDescription {
	energyQuantity 1:1
	energyUnit 1:1
}
enum Software.SbomType {
}
enum Software.SoftwarePurpose {
}
enum Software.ContentIdentifierType {
}
enum Software.FileKindType {
}
enum Service.AuthenticationProtocolType {
}
enum Security.SsvcDecisionType {
}
enum Security.CvssSeverityType {
}
enum Security.VexJustificationType {
}
enum Security.ExploitCatalogType {
}
enum Core.AnnotationType {
}
enum Core.ProcessReadinessType {
}
enum Core.IsoAutomationLevel {
}
enum Core.RelationshipCompleteness {
}
enum Core.RequirementStatusType {
}
enum Core.PresenceType {
}
enum Core.ExternalRefType {
}
enum Core.LifecycleScopeType {
}
enum Core.ContactPointRelationshipType {
}
enum Core.HashAlgorithm {
}
enum Core.RelationshipType {
}
enum Core.ExternalIdentifierType {
}
enum Core.ProfileIdentifierType {
}
enum Core.SupportType {
}
enum Core.SpecificationType {
}
enum FunctionalSafety.VerificationType {
}
enum FunctionalSafety.EvaluationResultType {
}
enum FunctionalSafety.EvidenceType {
}
enum FunctionalSafety.SafetyIntegrityLevelType {
}
enum Dataset.ConfidentialityLevelType {
}
enum Dataset.DatasetType {
}
enum Dataset.DatasetAvailabilityType {
}
enum SupplyChain.ResponsibilityType {
}
enum Hardware.VirtualHardwareModelType {
}
enum AI.SafetyRiskAssessmentType {
}
enum AI.EnergyUnitType {
}
class Core.CountryCodeAlpha3 {
}
class Core.MediaType {
}
class Core.LanguageTag {
}
class Core.DateTime {
}
class Core.VersionNumber {
}
Software.ContentIdentifier --|> IntegrityMethod
Software.SoftwareArtifact --|> Artifact
Software.File --|> SoftwareArtifact
Software.Package --|> SoftwareArtifact
Software.Sbom --|> Bom
Software.Snippet --|> SoftwareArtifact
Extension.CdxPropertiesExtension --|> Extension
Service.SoftwareService --|> Artifact
Security.VexFixedVulnAssessmentRelationship --|> VexVulnAssessmentRelationship
Security.VexAffectedVulnAssessmentRelationship --|> VexVulnAssessmentRelationship
Security.VexUnderInvestigationVulnAssessmentRelationship --|> VexVulnAssessmentRelationship
Security.CvssV2VulnAssessmentRelationship --|> VulnAssessmentRelationship
Security.CvssV3VulnAssessmentRelationship --|> VulnAssessmentRelationship
Security.VexVulnAssessmentRelationship --|> VulnAssessmentRelationship
Security.CvssV4VulnAssessmentRelationship --|> VulnAssessmentRelationship
Security.VulnAssessmentRelationship --|> Relationship
Security.Vulnerability --|> Artifact
Security.VexNotAffectedVulnAssessmentRelationship --|> VexVulnAssessmentRelationship
Security.ExploitCatalogVulnAssessmentRelationship --|> VulnAssessmentRelationship
Security.SsvcVulnAssessmentRelationship --|> VulnAssessmentRelationship
Security.EpssVulnAssessmentRelationship --|> VulnAssessmentRelationship
ExpandedLicensing.DisjunctiveLicenseSet --|> AnyLicenseInfo
ExpandedLicensing.ListedLicense --|> License
ExpandedLicensing.License --|> ExtendableLicense
ExpandedLicensing.ListedLicenseException --|> LicenseAddition
ExpandedLicensing.CustomLicense --|> License
ExpandedLicensing.ConjunctiveLicenseSet --|> AnyLicenseInfo
ExpandedLicensing.CustomLicenseAddition --|> LicenseAddition
ExpandedLicensing.ExtendableLicense --|> AnyLicenseInfo
ExpandedLicensing.LicenseAddition --|> Element
ExpandedLicensing.WithAdditionOperator --|> AnyLicenseInfo
ExpandedLicensing.IndividualLicensingInfo --|> AnyLicenseInfo
ExpandedLicensing.OrLaterOperator --|> ExtendableLicense
Core.Relationship --|> Element
Core.Bundle --|> ElementCollection
Core.Specification --|> Artifact
Core.Artifact --|> Element
Core.Requirement --|> Element
Core.LifecycleScopedRelationship --|> Relationship
Core.Regulation --|> Specification
Core.Agent --|> Element
Core.Person --|> Agent
Core.Bom --|> Bundle
Core.IndividualElement --|> Element
Core.Organization --|> Agent
Core.SpdxDocument --|> ElementCollection
Core.DefinedProcess --|> Artifact
Core.SupportRelationship --|> Relationship
Core.PackageVerificationCode --|> IntegrityMethod
Core.Hash --|> IntegrityMethod
Core.PhysicalLocation --|> Location
Core.Action --|> Artifact
Core.Role --|> Element
Core.Annotation --|> Element
Core.RoleRelationship --|> Relationship
Core.ContactPointRelationship --|> Relationship
Core.Tool --|> Element
Core.Location --|> Element
Core.ElementCollection --|> Element
Core.SoftwareAgent --|> Agent
Operations.Project --|> Bundle
Operations.ExportControlClassificationAssessment --|> Artifact
FunctionalSafety.SafetyContextRelationship --|> LifecycleScopedRelationship
FunctionalSafety.Assumption --|> Element
FunctionalSafety.RequirementVerification --|> Element
FunctionalSafety.EvidenceRelationship --|> Relationship
FunctionalSafety.EvaluationResult --|> Element
Dataset.DatasetPackage --|> Package
Build.Build --|> Element
SupplyChain.HarvestAction --|> CreateAction
SupplyChain.StateProcess --|> UseProcess
SupplyChain.AssemblyProcess --|> CreateProcess
SupplyChain.ResolutionAction --|> UseAction
SupplyChain.ReproduceProcess --|> CreateProcess
SupplyChain.BoundaryDefinitionAction --|> Action
SupplyChain.ResponsibilityChangeProcess --|> DefinedProcess
SupplyChain.StorageAction --|> ModifyAction
SupplyChain.TransportProcess --|> ModifyProcess
SupplyChain.ChangeProcess --|> ModifyProcess
SupplyChain.DestroyAction --|> Action
SupplyChain.ModifyAction --|> Action
SupplyChain.TestAction --|> UseAction
SupplyChain.OutOfSpecAction --|> UseAction
SupplyChain.InstantiateVirtualHardwareProcess --|> CreateProcess
SupplyChain.ResponsibilityChangeAction --|> Action
SupplyChain.BoundaryCrossingAction --|> UseAction
SupplyChain.ReproduceAction --|> CreateAction
SupplyChain.ManufactureProcess --|> CreateProcess
SupplyChain.StorageProcess --|> ModifyProcess
SupplyChain.CreateAction --|> Action
SupplyChain.State --|> Artifact
SupplyChain.PlanAction --|> UseAction
SupplyChain.StateAction --|> UseAction
SupplyChain.HarvestProcess --|> CreateProcess
SupplyChain.ManufactureAction --|> CreateAction
SupplyChain.BoundaryDefinitionProcess --|> DefinedProcess
SupplyChain.TransportAction --|> ModifyAction
SupplyChain.PlanProcess --|> UseProcess
SupplyChain.InspectionProcess --|> UseProcess
SupplyChain.ModifyProcess --|> DefinedProcess
SupplyChain.AssemblyAction --|> CreateAction
SupplyChain.CreateProcess --|> DefinedProcess
SupplyChain.DestroyProcess --|> DefinedProcess
SupplyChain.UseAction --|> Action
SupplyChain.TestProcess --|> UseProcess
SupplyChain.UseProcess --|> DefinedProcess
SupplyChain.ChangeAction --|> ModifyAction
SupplyChain.InspectionAction --|> UseAction
Hardware.BulkHardware --|> Hardware
Hardware.Hardware --|> Artifact
Hardware.VirtualHardware --|> Hardware
Hardware.PhysicalHardware --|> Hardware
Hardware.ProductSpecification --|> Specification
SimpleLicensing.LicenseExpression --|> AnyLicenseInfo
SimpleLicensing.SimpleLicensingText --|> Element
SimpleLicensing.AnyLicenseInfo --|> Element
AI.AIPackage --|> Package
AI.InteractionTemplate --|> Artifact
Software.ContentIdentifier::contentIdentifierType --> ContentIdentifierType
Software.SoftwareArtifact::additionalPurpose --> SoftwarePurpose
Software.SoftwareArtifact::contentIdentifier --> ContentIdentifier
Software.SoftwareArtifact::primaryPurpose --> SoftwarePurpose
Software.File::/Core/contentType --> MediaType
Software.File::fileKind --> FileKindType
Software.Sbom::sbomType --> SbomType
Software.Snippet::byteRange --> PositiveIntegerRange
Software.Snippet::lineRange --> PositiveIntegerRange
Software.Snippet::snippetFromFile --> File
Extension.CdxPropertiesExtension::cdxProperty --> CdxPropertyEntry
Service.SoftwareService::serverAuthenticationProtocol --> AuthenticationProtocolType
Service.SoftwareService::serviceHostingCountry --> CountryCodeAlpha3
Security.VexAffectedVulnAssessmentRelationship::actionStatementTime --> DateTime
Security.CvssV3VulnAssessmentRelationship::severity --> CvssSeverityType
Security.CvssV4VulnAssessmentRelationship::severity --> CvssSeverityType
Security.VulnAssessmentRelationship::/Core/suppliedBy --> Agent
Security.VulnAssessmentRelationship::assessedElement --> Artifact
Security.VulnAssessmentRelationship::modifiedTime --> DateTime
Security.VulnAssessmentRelationship::publishedTime --> DateTime
Security.VulnAssessmentRelationship::withdrawnTime --> DateTime
Security.Vulnerability::modifiedTime --> DateTime
Security.Vulnerability::publishedTime --> DateTime
Security.Vulnerability::withdrawnTime --> DateTime
Security.VexNotAffectedVulnAssessmentRelationship::impactStatementTime --> DateTime
Security.VexNotAffectedVulnAssessmentRelationship::justificationType --> VexJustificationType
Security.ExploitCatalogVulnAssessmentRelationship::catalogType --> ExploitCatalogType
Security.SsvcVulnAssessmentRelationship::decisionType --> SsvcDecisionType
ExpandedLicensing.DisjunctiveLicenseSet::member --> AnyLicenseInfo
ExpandedLicensing.ConjunctiveLicenseSet::member --> AnyLicenseInfo
ExpandedLicensing.WithAdditionOperator::subjectAddition --> LicenseAddition
ExpandedLicensing.WithAdditionOperator::subjectExtendableLicense --> ExtendableLicense
ExpandedLicensing.OrLaterOperator::subjectLicense --> License
Core.Relationship::completeness --> RelationshipCompleteness
Core.Relationship::endTime --> DateTime
Core.Relationship::from --> Element
Core.Relationship::relationshipType --> RelationshipType
Core.Relationship::startTime --> DateTime
Core.Relationship::to --> Element
Core.Specification::specType --> SpecificationType
Core.Artifact::builtTime --> DateTime
Core.Artifact::originatedBy --> Agent
Core.Artifact::releaseTime --> DateTime
Core.Artifact::suppliedBy --> Agent
Core.Artifact::supportLevel --> SupportType
Core.Artifact::validUntilTime --> DateTime
Core.ExternalMap::definingArtifact --> Artifact
Core.ExternalMap::verifiedUsing --> IntegrityMethod
Core.Requirement::devLifecycleStage --> LifecycleScopeType
Core.Requirement::requirementStatus --> RequirementStatusType
Core.Requirement::requirementUID --> ExternalIdentifier
Core.LifecycleScopedRelationship::scope --> LifecycleScopeType
Core.Element::creationInfo --> CreationInfo
Core.Element::extension --> Extension
Core.Element::externalIdentifier --> ExternalIdentifier
Core.Element::externalRef --> ExternalRef
Core.Element::verifiedUsing --> IntegrityMethod
Core.DefinedType::definitionSource --> Specification
Core.ExternalIdentifier::externalIdentifierType --> ExternalIdentifierType
Core.Organization::headquartersLocation --> Location
Core.SpdxDocument::dataLicense --> AnyLicenseInfo
Core.SpdxDocument::import --> ExternalMap
Core.SpdxDocument::namespaceMap --> NamespaceMap
Core.DefinedProcess::processReadiness --> ProcessReadinessType
Core.SupportRelationship::supportLevel --> SupportType
Core.PackageVerificationCode::algorithm --> HashAlgorithm
Core.Hash::algorithm --> HashAlgorithm
Core.PhysicalLocation::country --> CountryCodeAlpha3
Core.Action::actionLocation --> Location
Core.Action::additionalInformation --> DictionaryEntry
Core.Action::endTime --> DateTime
Core.Action::startTime --> DateTime
Core.ElementMap::elementValue --> Element
Core.Role::referenceSpecification --> DefinedType
Core.Role::responsibility --> Requirement
Core.Role::roleQualification --> Requirement
Core.Annotation::annotationType --> AnnotationType
Core.Annotation::contentType --> MediaType
Core.Annotation::subject --> Element
Core.CreationInfo::created --> DateTime
Core.CreationInfo::createdBy --> Agent
Core.CreationInfo::createdUsing --> Tool
Core.CreationInfo::specVersion --> VersionNumber
Core.RoleRelationship::assignedBy --> Agent
Core.RoleRelationship::givenRole --> Role
Core.ContactPointRelationship::contactType --> ContactPointRelationshipType
Core.ExternalRef::contentType --> MediaType
Core.ExternalRef::externalRefType --> ExternalRefType
Core.Location::locationTime --> DateTime
Core.ElementCollection::element --> Element
Core.ElementCollection::profileConformance --> ProfileIdentifierType
Core.ElementCollection::rootElement --> Element
Operations.ExportControlClassification::exportControlSpecification --> Specification
Operations.ExportControlClassification::exportingCountry --> CountryCodeAlpha3
Operations.Project::/Core/endTime --> DateTime
Operations.Project::/Core/startTime --> DateTime
Operations.Project::projectOwner --> Agent
Operations.Project::projectSponsor --> Agent
Operations.ExportControlClassificationAssessment::assessedElement --> Element
Operations.ExportControlClassificationAssessment::assessmentContext --> Project
Operations.ExportControlClassificationAssessment::assessmentResult --> ExportControlClassification
Operations.ExportControlClassificationAssessment::assessmentTime --> DateTime
Operations.ExportControlClassificationAssessment::assessor --> Agent
FunctionalSafety.SafetyContextRelationship::safetyIntegrityLevel --> SafetyIntegrityLevelType
FunctionalSafety.Assumption::assumptionUID --> ExternalIdentifier
FunctionalSafety.RequirementVerification::verificationMethod --> VerificationType
FunctionalSafety.RequirementVerification::verificationUID --> ExternalIdentifier
FunctionalSafety.EvidenceRelationship::evidenceCategory --> EvidenceType
FunctionalSafety.EvidenceRelationship::evidenceUID --> ExternalIdentifier
FunctionalSafety.EvaluationResult::evaluation --> EvaluationResultType
FunctionalSafety.EvaluationResult::evaluationBasedOn --> RequirementVerification
Dataset.DatasetPackage::/Core/inLanguage --> LanguageTag
Dataset.DatasetPackage::confidentialityLevel --> ConfidentialityLevelType
Dataset.DatasetPackage::datasetAvailability --> DatasetAvailabilityType
Dataset.DatasetPackage::datasetType --> DatasetType
Dataset.DatasetPackage::hasSensitivePersonalInformation --> PresenceType
Dataset.DatasetPackage::sensor --> DictionaryEntry
Build.Build::/Core/endTime --> DateTime
Build.Build::/Core/startTime --> DateTime
Build.Build::buildEndTime --> DateTime
Build.Build::buildStartTime --> DateTime
Build.Build::configSourceDigest --> Hash
Build.Build::environment --> DictionaryEntry
Build.Build::parameter --> DictionaryEntry
SupplyChain.StateProcess::validState --> State
SupplyChain.BoundaryDefinitionAction::boundaryParameter --> DictionaryEntry
SupplyChain.ResponsibilityChangeProcess::plannedCurrentResponsibleAgent --> Agent
SupplyChain.ResponsibilityChangeProcess::plannedPreviousResponsibleAgent --> Agent
SupplyChain.ResponsibilityChangeProcess::plannedProductOfResponsibilityChange --> Element
SupplyChain.ResponsibilityChangeProcess::responsibilityCategory --> ResponsibilityType
SupplyChain.TransportProcess::plannedDropoffLocation --> Location
SupplyChain.TransportProcess::plannedPickupLocation --> Location
SupplyChain.DestroyAction::destructionPerformedBy --> Agent
SupplyChain.ResponsibilityChangeAction::currentResponsibleAgent --> Agent
SupplyChain.ResponsibilityChangeAction::previousResponsibleAgent --> Agent
SupplyChain.ResponsibilityChangeAction::responsibilityCategory --> ResponsibilityType
SupplyChain.ResponsibilityChangeAction::responsibilityChangedOn --> Element
SupplyChain.StorageProcess::plannedStorageLocation --> Location
SupplyChain.StateAction::currentState --> State
SupplyChain.StateAction::decisionProcess --> StateProcess
SupplyChain.TransportAction::dropoffLocation --> Location
SupplyChain.TransportAction::pickupLocation --> Location
SupplyChain.InspectionProcess::plannedInspectionLocation --> Location
Hardware.BulkHardware::bulkQuantity --> UnitOfMeasure
Hardware.Hardware::additionalInformation --> DictionaryEntry
Hardware.Hardware::additionalInformationSpecification --> Specification
Hardware.Hardware::category --> DefinedType
Hardware.Hardware::hazard --> DefinedType
Hardware.Hardware::productAgent --> Agent
Hardware.Hardware::releaseDate --> DateTime
Hardware.VirtualHardware::virtualHardwareModel --> VirtualHardwareModelType
Hardware.PhysicalHardware::centerOfMass --> Dimensions
Hardware.PhysicalHardware::dimensions --> Dimensions
Hardware.PhysicalHardware::massOfHardware --> UnitOfMeasure
Hardware.ProductSpecification::hazard --> DefinedType
Hardware.Dimensions::xAxisLength --> UnitOfMeasure
Hardware.Dimensions::yAxisLength --> UnitOfMeasure
Hardware.Dimensions::zAxisLength --> UnitOfMeasure
SimpleLicensing.LicenseExpression::customIdToLicense --> ElementMap
SimpleLicensing.LicenseExpression::customIdToUri --> DictionaryEntry
SimpleLicensing.LicenseExpression::licenseListVersion --> VersionNumber
AI.EnergyConsumption::finetuningEnergyConsumption --> EnergyConsumptionDescription
AI.EnergyConsumption::inferenceEnergyConsumption --> EnergyConsumptionDescription
AI.EnergyConsumption::trainingEnergyConsumption --> EnergyConsumptionDescription
AI.AIPackage::/Core/isoAutomationLevel --> IsoAutomationLevel
AI.AIPackage::autonomyType --> PresenceType
AI.AIPackage::energyConsumption --> EnergyConsumption
AI.AIPackage::hyperparameter --> DictionaryEntry
AI.AIPackage::metric --> DictionaryEntry
AI.AIPackage::metricDecisionThreshold --> DictionaryEntry
AI.AIPackage::safetyRiskAssessment --> SafetyRiskAssessmentType
AI.AIPackage::useSensitivePersonalInformation --> PresenceType
AI.InteractionTemplate::interactionTemplateDictionary --> DictionaryEntry
AI.EnergyConsumptionDescription::energyUnit --> EnergyUnitType

@enduml
